<svg id="Capa_1" enable-background="new 0 0 512 512" height="512" viewBox="0 0 512 512" width="512" xmlns="http://www.w3.org/2000/svg"><g><path d="m481 276v-261c0-8.284-6.716-15-15-15h-420c-8.284 0-15 6.716-15 15v261z" fill="#e7e7e7"/><path d="m481 15v261h-225.42v-276h210.42c8.28 0 15 6.72 15 15z" fill="#d3d3d8"/><circle cx="256" cy="128.5" fill="#c08478" r="52.5"/><path d="m308.5 128.5c0 28.95-23.55 52.5-52.5 52.5-.14 0-.28 0-.42-.01v-104.98c.14-.01.28-.01.42-.01 28.95 0 52.5 23.55 52.5 52.5z" fill="#b16e5a"/><path d="m346 226v50h-180v-50c0-24.81 20.19-45 45-45h90c24.81 0 45 20.19 45 45z" fill="#ff6c6c"/><path d="m346 226v50h-90.42v-95h45.42c24.81 0 45 20.19 45 45z" fill="#ff4949"/><path d="m496 271h-480c-8.284 0-15 6.716-15 15v211c0 8.284 6.716 15 15 15h480c8.284 0 15-6.716 15-15v-211c0-8.284-6.716-15-15-15z" fill="#6aa8ff"/><path d="m511 286v211c0 8.28-6.72 15-15 15h-240.42v-241h240.42c8.28 0 15 6.72 15 15z" fill="#0095ff"/><g fill="#e7e7e7"><path d="m255.579 316.025c-20.847 0-38.832 14.137-43.736 34.379-1.951 8.052 2.994 16.159 11.046 18.11 8.063 1.955 16.16-2.995 18.11-11.046 1.633-6.737 7.628-11.443 14.58-11.443 8.271 0 15 6.729 15 15s-6.729 15-15 15c-8.284 0-15 6.716-15 15v14.949c0 8.284 6.716 15 15 15s15-6.716 15-15v-2.52c17.461-6.19 30-22.873 30-42.43 0-24.812-20.186-44.999-45-44.999z"/><circle cx="255.579" cy="450.975" r="15"/></g><g fill="#d3d3d8"><path d="m300.58 361.03c0 19.55-12.54 36.23-30 42.43v2.51c0 8.29-6.72 15-15 15v-44.94c8.27 0 15-6.73 15-15 0-8.28-6.73-15-15-15v-30c24.81 0 45 20.18 45 45z"/><path d="m270.58 450.97c0 8.29-6.72 15-15 15v-30c8.28 0 15 6.72 15 15z"/></g></g></svg>