<svg id="Capa_1" enable-background="new 0 0 512 512" height="512" viewBox="0 0 512 512" width="512" xmlns="http://www.w3.org/2000/svg"><g><g><g><g><g><g><circle cx="256" cy="256" fill="#ff6c52" r="256"/></g></g></g></g></g><path d="m512 256c0-4.013-.093-8.005-.275-11.973l-83.142-83.142-345.166 190.23 160.61 160.61c3.968.183 7.96.275 11.973.275 141.385 0 256-114.615 256-256z" fill="#f92814"/><g><path d="m428.583 351.115v-190.23l-172.583-95.115-172.583 95.115v190.23l172.583 95.115z" fill="#ffce00"/></g><g><path d="m428.583 351.115v-190.23l-172.583-95.115v380.46z" fill="#fdba12"/></g><g fill="#636978"><path d="m109.759 290.203v-68.719h28.848c21.636 0 37.193 12.981 37.193 34.308s-15.557 34.411-37.09 34.411zm47.907-34.411c0-10.612-6.388-18.854-18.957-18.854h-11.23v37.811h11.127c12.055 0 19.06-8.757 19.06-18.957z"/><path d="m184.656 290.203v-68.719h50.38v15.454h-32.66v10.715h31.938v15.454h-31.938v11.642h32.66v15.454z"/><path d="m305.607 290.203v-44.714l-17.412 44.714h-7.83l-17.309-44.714v44.714h-17.721v-68.719h24.624l14.321 37.296 14.424-37.296h24.624v68.719z"/><path d="m332.186 255.895c0-20.915 15.763-35.544 36.781-35.544s36.678 14.63 36.678 35.544c0 20.915-15.66 35.545-36.678 35.545s-36.781-14.63-36.781-35.545zm55.429 0c0-11.23-7.315-19.884-18.648-19.884-11.436 0-18.751 8.654-18.751 19.884 0 11.127 7.315 19.884 18.751 19.884 11.333 0 18.648-8.757 18.648-19.884z"/></g></g></svg>