<svg xmlns="http://www.w3.org/2000/svg" enable-background="new 0 0 512 512" viewBox="0 0 512 512"><path fill="#00acea" d="M348,141L253,41H101.2C79.1,41,61.1,58.9,61,81v287.8C61.1,391,79,409,101.2,409h162.6l84.3-133
		H348V141z"/><path fill="#00efd1" d="M253.4,41l95.1,99.9h-65.1c-16.6,0-30-13.4-30-30L253.4,41z"/><path fill="#fedb41" d="M281.9 275h-154c-5.5 0-10-4.5-10-10s4.5-10 10-10l0 0h154c5.5 0 10 4.5 10 10S287.4 275 281.9 275zM222.7 227.6h-94.7c-5.5 0-10-4.5-10-10s4.5-10 10-10l0 0h94.7c5.5 0 10 4.5 10 10S228.2 227.6 222.7 227.6zM261.6 322.3H127.9c-5.5 0-10-4.5-10-10s4.5-10 10-10l0 0h133.7c5.5 0 10 4.5 10 10S267.1 322.3 261.6 322.3z"/><path fill="#00efd1" d="M348.4,266h-0.3c-56.6,0.1-102.5,46.1-102.4,102.7s46.1,102.5,102.7,102.4
		c56.6-0.1,102.5-46.1,102.4-102.7C450.7,311.9,404.9,266.1,348.4,266z"/><path fill="#00acea" d="M386.5,364.9c-1.8-3.1-5.1-5-8.7-4.9H358v-44c0-5.5-4.5-10-10-10s-10,4.5-10,10v44h-19.6
		c-5.5-0.1-9.9,4.3-10,9.8c0,1.8,0.5,3.6,1.4,5.1l29.7,50.7c2.8,4.8,8.9,6.4,13.7,3.6c1.5-0.9,2.7-2.1,3.6-3.6l29.7-50.7
		C388.3,371.9,388.3,368,386.5,364.9z M348.1,400.9L335.9,380h24.5L348.1,400.9z"/></svg>