<svg xmlns="http://www.w3.org/2000/svg" enable-background="new 0 0 50 50" viewBox="0 0 50 50"><path fill="#010101" d="M7.2,47.7h35.6c3.4,0,6.2-2.8,6.2-6.2c0-0.6-0.4-1-1-1h-1.7V15c0-1.1-0.9-2-2-2H5.7c-1.1,0-2,0.9-2,2v25.5
		H2c-0.6,0-1,0.4-1,1C1,45,3.8,47.7,7.2,47.7z M5.7,15h38.6v25.5H5.7V15z M46.9,42.5c-0.5,1.8-2.1,3.2-4.1,3.2H7.2
		c-2,0-3.6-1.4-4.1-3.2C18.9,42.5,20.6,42.5,46.9,42.5z"/><path fill="#010101" d="M17.9 22.9c-.1-.2-.2-.4-.4-.6-.2-.2-.4-.2-.7-.2h-.5c-.3 0-.5.1-.7.2-.2.2-.4.3-.4.6L12 32.2c-.1.2 0 .4.1.6.1.2.3.3.5.3H13c.3 0 .5-.1.7-.2.2-.2.3-.4.4-.6l.5-1.7c0-.1.1-.1.2-.1h3.4c.1 0 .2 0 .2.1l.5 1.7c.1.2.2.4.4.6.2.2.4.2.7.2h.5c.2 0 .4-.1.5-.3.1-.2.1-.4.1-.6L17.9 22.9zM17.8 28.8C17.8 28.8 17.7 28.8 17.8 28.8l-2.6 0c0 0-.1 0-.1 0 0 0 0-.1 0-.1l1.3-4.7c0 0 0 0 0 0 0 0 0 0 0 0L17.8 28.8C17.8 28.7 17.8 28.7 17.8 28.8zM28.2 22.1H28c-.3 0-.5.1-.7.2-.2.1-.4.3-.5.6l-4.5 10c-.1.2-.1.4 0 .5s.3.3.5.3h.2c.3 0 .5-.1.7-.2.2-.1.4-.3.5-.6l4.5-10c.1-.2.1-.4 0-.5C28.5 22.2 28.4 22.1 28.2 22.1zM37.4 28.1c-.5-.5-1.1-.8-1.9-.9 0 0 0 0 0 0 0 0 0 0 0 0 .7-.1 1.2-.4 1.6-.9.4-.5.6-1 .6-1.6 0-1.8-1.4-2.8-4.2-2.8-.7 0-1.4 0-2.2.1-.3 0-.5.1-.6.3-.2.2-.2.4-.2.7v9.1c0 .3.1.5.2.7.2.2.4.3.6.3.8.1 1.6.1 2.3.1 1.5 0 2.7-.3 3.4-.8.7-.6 1.1-1.4 1.1-2.5C38.1 29.2 37.9 28.6 37.4 28.1zM32.5 23.8c0-.1 0-.1.1-.2.3 0 .6-.1.9-.1.8 0 1.3.1 1.7.3.3.2.5.6.5 1.1 0 .5-.2.9-.6 1.1-.4.3-1.1.4-2 .4h-.4c-.1 0-.1 0-.1-.1V23.8zM35.5 31.1c-.4.3-1 .5-1.8.5-.3 0-.6 0-1-.1-.1 0-.1-.1-.1-.2v-3.2c0-.1 0-.1.1-.1h.5c1 0 1.8.1 2.2.4.4.3.7.7.7 1.2C36.1 30.3 35.9 30.8 35.5 31.1zM20 11.6c.6 0 1-.4 1-1v-5l.6.6c.2.2.5.3.7.3.3 0 .5-.1.7-.3.4-.4.4-1 0-1.4l-2.3-2.3c-.4-.4-1-.4-1.4 0l-2.3 2.3c-.4.4-.4 1 0 1.4.4.4 1 .4 1.4 0L19 5.7v5C19 11.2 19.4 11.6 20 11.6zM30 2.3c-.6 0-1 .4-1 1v5l-.6-.6c-.4-.4-1-.4-1.4 0-.4.4-.4 1 0 1.4l2.3 2.3c.2.2.5.3.7.3.3 0 .5-.1.7-.3L33.1 9c.4-.4.4-1 0-1.4-.4-.4-1-.4-1.4 0L31 8.2v-5C31 2.7 30.6 2.3 30 2.3z"/></svg>