<svg xmlns="http://www.w3.org/2000/svg" viewBox="0 0 32 32"><defs><linearGradient id="a" x1="16.52" x2="16.52" y1="26.96" y2="5.04" gradientUnits="userSpaceOnUse"><stop offset="0" stop-color="#43cbff"/><stop offset="1" stop-color="#9708cc"/></linearGradient></defs><path fill="url(#a)" d="M28.9,15.32l-.5-.54h0L19.74,5.36A1,1,0,0,0,18,6v4H4.87a1,1,0,0,0-1,1V21a1,1,0,0,0,1,1H18v4a1,1,0,0,0,.63.93A.94.94,0,0,0,19,27a1,1,0,0,0,.73-.32l8.66-9.42h0l.5-.54A1,1,0,0,0,28.9,15.32ZM20,21h0a1,1,0,0,0-1-1H5.87V12h13l.1,0a1,1,0,0,0,1-1V8.61L26.8,16,20,23.39V21Z"/></svg>