<svg xmlns="http://www.w3.org/2000/svg" width="32" height="32" viewBox="0 0 32 32"><g transform="translate(-275.036 -1139.112)"><path fill="#2b4255" style="line-height:normal;text-indent:0;text-align:start;text-decoration-line:none;text-decoration-style:solid;text-decoration-color:#000;text-transform:none;block-progression:tb;isolation:auto;mix-blend-mode:normal" d="m 284.53516,1140.1113 a 0.50005,0.50005 0 0 0 -0.5,0.5 l 0,9 a 0.50005,0.50005 0 0 0 0.5,0.5 l 13,0 a 0.50005,0.50005 0 0 0 0.5,-0.5 l 0,-9 a 0.50005,0.50005 0 0 0 -0.5,-0.5 l -13,0 z m 0.5,1 12,0 0,8 -12,0 0,-8 z" color="#000" font-family="sans-serif" font-weight="400" overflow="visible"/><path fill="#2b4255" fill-rule="evenodd" style="line-height:normal;text-indent:0;text-align:start;text-decoration-line:none;text-decoration-style:solid;text-decoration-color:#000;text-transform:none;block-progression:tb;isolation:auto;mix-blend-mode:normal" d="M289.03516 1150.0117l0 2.2012 1 0 0-2.2012-1 0zM292.03516 1150.0117l0 2.2012 1 0 0-2.2012-1 0z" color="#000" font-family="sans-serif" font-weight="400" overflow="visible"/><path fill="#2b4255" fill-rule="evenodd" style="line-height:normal;text-indent:0;text-align:start;text-decoration-line:none;text-decoration-style:solid;text-decoration-color:#000;text-transform:none;block-progression:tb;isolation:auto;mix-blend-mode:normal" d="m 288.08594,1152.1113 0,1 6,0 0,-1 -6,0 z" color="#000" font-family="sans-serif" font-weight="400" overflow="visible"/><path fill="#f8b84e" d="m 286.03595,1142.1122 10,0 0,6 -10,0 z"/><path fill="#2b4255" style="line-height:normal;text-indent:0;text-align:start;text-decoration-line:none;text-decoration-style:solid;text-decoration-color:#000;text-transform:none;block-progression:tb;isolation:auto;mix-blend-mode:normal" d="m 275.53516,1160.1113 0,0.5 0,6.5 9,0 0,-7 -9,0 z m 1,1 7,0 0,5 -7,0 0,-5 z" color="#000" font-family="sans-serif" font-weight="400" overflow="visible"/><path fill="#2b4255" fill-rule="evenodd" style="line-height:normal;text-indent:0;text-align:start;text-decoration-line:none;text-decoration-style:solid;text-decoration-color:#000;text-transform:none;block-progression:tb;isolation:auto;mix-blend-mode:normal" d="M278.03516 1167.0117l0 2.2012 1 0 0-2.2012-1 0zM281.03516 1167.0117l0 2.2012 1 0 0-2.2012-1 0z" color="#000" font-family="sans-serif" font-weight="400" overflow="visible"/><path fill="#2b4255" fill-rule="evenodd" style="line-height:normal;text-indent:0;text-align:start;text-decoration-line:none;text-decoration-style:solid;text-decoration-color:#000;text-transform:none;block-progression:tb;isolation:auto;mix-blend-mode:normal" d="m 277.03516,1169.1113 0,1 6,0 0,-1 -6,0 z" color="#000" font-family="sans-serif" font-weight="400" overflow="visible"/><path fill="#f8b84e" d="m 277.53595,1162.1122 5,0 0,3 -5,0 z"/><path fill="#2b4255" style="line-height:normal;text-indent:0;text-align:start;text-decoration-line:none;text-decoration-style:solid;text-decoration-color:#000;text-transform:none;block-progression:tb;isolation:auto;mix-blend-mode:normal" d="m 286.53516,1160.1113 0,0.5 0,6.5 9,0 0,-7 -9,0 z m 1,1 7,0 0,5 -7,0 0,-5 z" color="#000" font-family="sans-serif" font-weight="400" overflow="visible"/><path fill="#2b4255" fill-rule="evenodd" style="line-height:normal;text-indent:0;text-align:start;text-decoration-line:none;text-decoration-style:solid;text-decoration-color:#000;text-transform:none;block-progression:tb;isolation:auto;mix-blend-mode:normal" d="M289.03516 1167.0117l0 2.2012 1 0 0-2.2012-1 0zM292.03516 1167.0117l0 2.2012 1 0 0-2.2012-1 0z" color="#000" font-family="sans-serif" font-weight="400" overflow="visible"/><path fill="#2b4255" fill-rule="evenodd" style="line-height:normal;text-indent:0;text-align:start;text-decoration-line:none;text-decoration-style:solid;text-decoration-color:#000;text-transform:none;block-progression:tb;isolation:auto;mix-blend-mode:normal" d="m 288.03516,1169.1113 0,1 6,0 0,-1 -6,0 z" color="#000" font-family="sans-serif" font-weight="400" overflow="visible"/><path fill="#f8b84e" d="m 288.53595,1162.1122 5,0 0,3 -5,0 z"/><path fill="#2b4255" style="line-height:normal;text-indent:0;text-align:start;text-decoration-line:none;text-decoration-style:solid;text-decoration-color:#000;text-transform:none;block-progression:tb;isolation:auto;mix-blend-mode:normal" d="m 297.53516,1160.1113 0,0.5 0,6.5 9,0 0,-7 -9,0 z m 1,1 7,0 0,5 -7,0 0,-5 z" color="#000" font-family="sans-serif" font-weight="400" overflow="visible"/><path fill="#2b4255" fill-rule="evenodd" style="line-height:normal;text-indent:0;text-align:start;text-decoration-line:none;text-decoration-style:solid;text-decoration-color:#000;text-transform:none;block-progression:tb;isolation:auto;mix-blend-mode:normal" d="M300.03516 1167.0117l0 2.2012 1 0 0-2.2012-1 0zM303.03516 1167.0117l0 2.2012 1 0 0-2.2012-1 0z" color="#000" font-family="sans-serif" font-weight="400" overflow="visible"/><path fill="#2b4255" fill-rule="evenodd" style="line-height:normal;text-indent:0;text-align:start;text-decoration-line:none;text-decoration-style:solid;text-decoration-color:#000;text-transform:none;block-progression:tb;isolation:auto;mix-blend-mode:normal" d="m 299.03516,1169.1113 0,1 6,0 0,-1 -6,0 z" color="#000" font-family="sans-serif" font-weight="400" overflow="visible"/><path fill="#f8b84e" d="m 299.53595,1162.1122 5,0 0,3 -5,0 z"/><path fill="#2b4255" fill-rule="evenodd" style="line-height:normal;text-indent:0;text-align:start;text-decoration-line:none;text-decoration-style:solid;text-decoration-color:#000;text-transform:none;block-progression:tb;isolation:auto;mix-blend-mode:normal" d="M290.53516 1154.1113l0 2 1 0 0-2-1 0zM279.53516 1156.1113l0 1 23 0 0-1-23 0z" color="#000" font-family="sans-serif" font-weight="400" overflow="visible"/><path fill="#2b4255" fill-rule="evenodd" style="line-height:normal;text-indent:0;text-align:start;text-decoration-line:none;text-decoration-style:solid;text-decoration-color:#000;text-transform:none;block-progression:tb;isolation:auto;mix-blend-mode:normal" d="M279.53516 1156.6113l0 2.5 1 0 0-2.5-1 0zM290.53516 1156.6113l0 2.5 1 0 0-2.5-1 0zM301.53516 1156.6113l0 2.5 1 0 0-2.5-1 0z" color="#000" font-family="sans-serif" font-weight="400" overflow="visible"/></g></svg>